<?xml version="1.0" encoding="UTF-8" standalone="no"?>
<svg
   data-v-7bdd0738=""
   data-v-3208ab85=""
   viewBox="0 0 77 77.257133"
   class="icon-pressure"
   version="1.1"
   id="svg2"
   xmlns="http://www.w3.org/2000/svg"
   xmlns:svg="http://www.w3.org/2000/svg">
  <defs
     id="defs2" />
  <g
     data-v-7bdd0738=""
     transform="matrix(0.1,0,0,-0.1,-9.5,86.757132)"
     fill="#48484a"
     stroke="none"
     id="g2">
    <path
       data-v-7bdd0738=""
       d="M 351,854 C 253,819 172,746 124,652 97,599 95,587 95,480 95,373 97,361 124,308 162,233 228,167 304,127 362,96 370,95 480,95 c 110,0 118,1 175,32 77,40 138,101 178,178 31,57 32,65 32,175 0,110 -1,118 -32,176 -40,76 -106,142 -181,179 -49,25 -71,29 -157,32 -73,2 -112,-1 -144,-13 z m 259,-80 c 73,-34 126,-86 161,-159 24,-50 29,-73 29,-135 0,-62 -5,-85 -29,-135 C 714,226 610,160 480,160 c -130,0 -234,66 -291,185 -24,50 -29,73 -29,135 0,130 66,234 185,291 82,40 184,41 265,3 z"
       id="path1" />
    <path
       data-v-7bdd0738=""
       d="m 545,600 c -35,-35 -68,-60 -80,-60 -27,0 -45,-18 -45,-45 0,-33 -50,-75 -89,-75 -18,0 -41,-5 -53,-11 -20,-11 -20,-11 3,-35 12,-13 33,-24 46,-24 17,0 23,-6 23,-23 0,-13 10,-33 23,-45 30,-28 47,-13 47,43 0,32 6,47 28,68 15,15 37,27 48,27 26,0 44,18 44,44 0,12 26,47 60,81 l 60,61 -28,27 -28,27 z"
       id="path2" />
  </g>
</svg>
